P3
16 16
255
219 219 230
227 224 244
244 223 234
220 222 236
190 194 196
244 223 233
244 232 228
244 222 243
244 222 243
242 245 237
246 234 229
216 202 220
221 221 232
210 201 205
227 215 215
232 206 213
213 218 234
206 203 217
239 201 209
208 199 203
219 216 237
222 195 202
232 235 227
219 216 236
232 235 228
213 218 234
228 211 210
205 189 209
234 237 229
191 192 193
200 191 196
191 192 193
211 208 229
224 228 220
197 194 208
215 185 193
169 173 176
199 191 194
189 179 184
193 201 231
231 202 205
217 200 206
211 208 229
197 194 209
228 205 210
208 196 196
208 196 196
189 179 184
225 183 192
207 177 185
188 186 201
188 186 201
225 183 192
223 209 204
191 182 187
185 192 224
207 177 185
211 188 196
209 192 198
218 221 213
170 170 172
195 197 213
200 187 187
224 194 197
184 173 178
149 154 157
188 190 207
177 185 219
217 203 197
197 192 216
219 175 184
172 161 166
190 195 214
214 187 212
172 161 166
171 161 165
161 161 163
189 170 187
160 161 163
172 160 166
168 175 211
168 175 211
168 175 212
212 166 175
204 208 198
211 189 188
189 186 210
194 159 169
212 179 183
194 159 169
182 188 208
211 196 191
200 180 178
167 161 163
194 160 169
198 173 182
186 150 159
127 134 137
207 158 168
160 168 206
174 181 201
181 178 204
207 158 168
190 164 174
189 168 175
193 172 170
206 190 185
202 176 182
187 152 161
186 146 185
204 177 170
192 166 176
158 154 173
200 176 174
162 149 155
154 162 201
133 134 137
174 149 166
198 170 162
168 175 196
158 135 163
199 183 178
184 162 168
150 144 147
197 170 162
197 170 162
168 146 166
168 146 166
196 163 181
198 145 156
159 159 175
110 117 122
156 143 149
195 178 172
181 152 163
157 132 159
176 131 175
110 117 122
192 163 170
179 156 164
126 127 130
201 180 189
201 169 184
192 163 170
185 189 178
172 130 141
159 127 137
192 174 168
172 130 141
135 120 127
176 147 158
191 174 167
134 119 127
179 155 154
184 189 179
158 133 155
179 155 154
174 151 159
162 145 145
189 160 151
181 185 175
132 125 127
128 112 121
148 120 150
129 113 122
160 131 151
133 126 128
133 126 128
195 172 182
188 170 164
168 120 167
154 128 151
168 120 168
167 124 137
161 131 152
154 128 151
107 108 112
137 109 144
157 126 148
172 146 145
169 138 150
86 96 101
178 183 172
184 167 160
88 96 102
108 110 113
173 147 147
151 159 182
165 115 164
138 110 145
164 113 161
168 143 151
130 140 185
186 126 140
186 126 140
179 148 155
135 105 141
169 123 152
165 140 147
147 155 179
103 104 108
167 135 147
165 140 147
170 145 143
120 103 113
170 144 143
147 120 145
181 150 140
182 163 157
146 154 178
168 142 140
178 146 154
160 113 127
100 101 105
132 102 139
77 88 93
168 143 140
188 168 145
163 138 146
160 113 127
189 175 181
188 175 181
188 168 144
139 108 140
144 152 177
75 85 92
144 115 141
187 167 144
121 112 115
162 136 145
131 100 138
151 119 142
121 112 115
166 118 149
138 105 139
98 99 104
179 146 136
166 118 149
187 174 180
177 144 152
96 98 102
126 136 182
176 144 152
180 162 155
179 162 154
176 144 152
144 114 140
159 104 158
165 117 148
176 144 152
150 118 141
130 99 137
187 173 179
143 114 141
187 150 168
178 145 135
