P3
16 16
255
34 69 222
10 19 246
109 216 147
41 80 215
58 113 198
102 199 154
21 37 235
116 225 140
78 149 178
15 22 241
107 204 149
39 68 217
39 67 217
78 143 178
119 224 137
114 213 142
131 247 125
103 189 153
133 249 123
80 142 176
17 14 239
58 95 198
14 7 242
138 254 118
96 168 160
122 220 134
48 70 208
96 166 160
134 241 122
43 57 213
86 143 170
71 112 185
65 98 191
51 70 205
34 35 222
85 135 171
132 229 124
113 189 143
116 194 140
93 148 163
106 173 150
36 32 220
135 229 121
93 144 163
113 183 143
104 163 152
54 63 202
108 170 148
91 135 165
52 55 204
107 165 149
26 1 230
135 219 121
67 82 189
129 204 127
65 76 191
117 178 139
100 143 156
85 112 171
115 171 141
115 170 141
153 246 103
137 213 119
45 28 211
122 180 134
80 96 176
138 211 118
51 35 205
88 109 168
137 206 119
152 234 104
113 156 143
63 55 193
76 79 180
67 61 189
69 63 187
71 67 185
154 231 102
126 175 130
88 97 168
129 179 127
70 59 186
78 75 178
85 87 171
142 200 114
122 160 134
52 18 204
46 6 210
165 242 91
110 131 146
97 104 159
126 161 130
159 227 97
77 61 179
111 129 145
127 160 129
120 144 136
164 231 92
52 6 204
51 4 205
107 115 149
108 115 148
51 1 205
149 196 107
139 175 117
124 144 132
135 165 121
161 216 95
147 187 109
65 22 191
113 116 143
142 173 114
114 117 142
82 52 174
166 218 90
63 12 193
148 181 108
135 153 121
132 147 124
167 215 89
186 252 70
180 239 76
187 253 69
82 41 174
104 84 152
62 0 194
177 229 79
86 46 170
166 205 90
156 183 100
113 97 143
135 140 121
155 178 101
110 88 146
86 39 170
193 251 63
128 120 128
103 69 153
158 178 98
191 243 65
82 25 174
127 113 129
109 76 147
77 11 179
86 28 170
127 109 129
136 126 120
153 160 103
116 84 140
190 231 66
129 108 127
85 20 171
200 248 56
83 13 173
178 202 78
143 132 113
192 229 64
143 130 113
155 152 101
162 166 94
148 136 108
119 78 137
171 181 85
138 113 118
148 133 108
127 90 129
177 188 79
201 236 55
191 214 65
197 226 59
136 103 120
89 7 167
187 203 69
105 37 151
116 59 140
125 76 131
143 110 113
152 128 104
106 35 150
134 90 122
214 249 42
134 88 122
174 167 82
127 71 129
174 165 82
95 6 161
146 106 110
219 252 37
103 18 153
189 189 67
102 15 154
144 97 112
185 179 71
136 79 120
183 172 73
213 232 43
161 127 95
173 149 83
166 135 90
139 80 117
114 28 142
226 251 30
180 158 76
117 31 139
181 158 75
105 5 151
186 166 70
230 254 26
153 98 103
211 213 45
138 66 118
123 36 133
115 19 141
111 9 145
192 171 64
159 103 97
114 12 142
158 100 98
230 243 26
153 88 103
212 204 44
194 167 62
122 22 134
228 234 28
191 158 65
174 124 82
136 47 120
128 30 128
228 228 28
115 2 141
185 141 71
128 26 128
223 214 33
206 180 50
188 143 68
194 154 62
226 216 30
132 27 124
180 123 76
137 36 119
165 90 91
151 62 105
248 254 8
152 62 104
151 58 105
216 188 40
182 119 74
157 67 99
245 243 11
140 31 116
215 180 41
195 139 61
238 225 18
210 167 46
143 33 113
143 32 113
